<svg width="279" height="279" viewBox="0 0 279 279" fill="none" xmlns="http://www.w3.org/2000/svg">
<path d="M211.321 68.8548C190.306 73.4402 180.192 90.7563 183.885 106.961C186.716 119.376 196.07 128.28 211.771 129.646C219.033 130.278 226.837 129.108 233.021 124.984C233.199 124.893 232.323 118.349 232.393 116.734C232.504 114.315 233.908 114.953 234.993 115.838C235.099 115.921 235.227 115.969 235.36 115.978C235.494 115.987 235.627 115.956 235.743 115.888C235.859 115.821 235.952 115.72 236.01 115.599C236.068 115.479 236.088 115.343 236.069 115.211C235.744 113.344 235.714 111.437 235.979 109.561C236.33 107.767 238.351 106.591 239.027 108.933C239.306 109.91 239.192 111.088 239.386 112.072C239.636 113.327 243.959 114.134 244.228 114.224C248.354 109.66 250.738 103.786 250.96 97.6365C251.902 79.6828 235.476 63.5845 211.321 68.8548ZM241.538 98.5335C239.261 99.7662 237.046 101.113 234.904 102.568C227.371 107.59 220.108 114.314 217.327 123.101C217.294 123.209 217.231 123.306 217.145 123.381C217.06 123.456 216.956 123.505 216.844 123.524C216.732 123.542 216.617 123.529 216.512 123.486C216.407 123.443 216.316 123.371 216.25 123.279C213.539 118.891 209.977 115.091 205.773 112.103C201.57 109.114 196.81 106.999 191.775 105.881C191.147 105.792 191.328 104.988 191.775 104.805C194.974 103.499 198.273 102.45 201.639 101.667C202.444 101.48 211.415 99.6941 211.412 99.4249C211.366 95.2998 210.516 78.6282 211.949 77.9963C215.181 76.5706 222.798 76.0237 222.798 76.5608C222.798 80.238 222.172 98.1694 222.081 98.1694C228.438 97.3048 234.865 97.0646 241.269 97.4523C241.395 97.4563 241.517 97.5013 241.615 97.5805C241.713 97.6597 241.782 97.7687 241.813 97.8911C241.843 98.0134 241.833 98.1423 241.783 98.2583C241.734 98.3742 241.648 98.4708 241.538 98.5335Z" fill="url(#paint0_linear_773_16400)"/>
<path d="M138.695 189.272C145.182 192.455 158.574 192.049 166.49 191.961C176.712 191.847 187.874 191.62 197.424 187.567C198.866 186.956 201.011 185.955 201.191 184.161C201.575 180.33 175.651 180.394 174.825 180.663C174.825 181.471 174.736 182.188 174.736 182.994C175.975 183.413 176.666 185.942 171.957 186.581C170.435 186.787 167.126 186.478 165.86 185.505C165.148 184.96 165.143 183.264 166.398 183.354V180.843C157.055 180.986 147.771 182.343 138.777 184.878C137.792 185.15 136.17 185.685 136.266 186.941C136.357 188.016 137.795 188.83 138.695 189.272Z" fill="#191919"/>
<path d="M202.534 183.981C202.354 184.79 202.016 185.555 201.539 186.232C201.062 186.91 200.456 187.486 199.756 187.928C198.567 188.611 197.303 189.153 195.989 189.542C184.299 193.448 170.806 193.186 158.779 193.038C152.404 192.96 144.689 193.131 138.604 190.348C136.893 189.564 135.286 188.652 135.556 186.762C135.144 187.06 134.808 187.45 134.575 187.902C134.341 188.353 134.217 188.854 134.211 189.362C134.283 189.851 134.488 190.311 134.804 190.691C135.121 191.071 135.536 191.356 136.004 191.514C140.649 193.339 145.55 194.428 150.53 194.741C161.496 195.859 172.543 195.95 183.526 195.01C189.034 194.538 194.493 193.608 199.848 192.231C205.358 190.566 205.873 187.307 203.434 184.789C203.078 184.419 202.804 184.251 202.534 183.981Z" fill="#191919"/>
<path d="M96.5535 228.186C97.898 228.867 99.3572 229.292 100.857 229.441C114.209 231.902 128.114 231.278 141.743 231.324C155.032 231.368 149.026 231.642 174.739 231.503C176.712 231.492 178.775 231.414 180.747 231.414C180.819 231.414 180.887 231.385 180.938 231.335C180.988 231.284 181.017 231.216 181.017 231.144C181.017 231.073 180.988 231.005 180.938 230.954C180.887 230.904 180.819 230.875 180.747 230.875C115.44 229.775 113.419 230.055 103.547 228.544C100.896 228.14 96.0973 227.82 96.4628 225.405C96.8032 223.161 98.8789 221.008 100.14 219.219C103.628 214.277 107.337 209.042 112.695 206.039C115.914 204.43 119.507 203.718 123.096 203.977C126.952 204.069 130.806 204.273 134.662 204.425C148.378 204.967 180.212 205.591 182.453 205.591C186.398 205.591 190.345 205.444 194.378 205.322C196.71 205.25 201.31 205.684 200.745 209.088C200.401 211.154 198.85 213.117 197.786 214.827C194.396 220.075 190.491 224.971 186.129 229.443C185.383 230.437 186.206 231.236 187.205 230.249C190.984 226.511 194.407 222.429 197.427 218.055C199.405 215.19 204.688 208.82 201.014 205.5C198.234 202.989 193.841 203.703 190.433 203.797C174.203 204.246 139.243 202.862 128.834 202.632C130.008 197.349 127.101 192.44 120.674 190.886C113.997 189.271 106.203 191.741 106.597 187.389C106.757 186.381 107.265 185.461 108.033 184.789C110.852 182.066 114.156 180.216 120.048 179.319C126.091 178.399 145.549 177.346 154.658 177.346C159.797 177.346 161.772 177.168 163.085 177.168C163.445 177.168 163.445 176.54 163.085 176.54C155.484 175.819 147.837 175.728 140.221 176.271C139.229 176.32 124.421 177.14 121.482 177.526C116.1 178.232 110.449 179.758 106.695 183.892C104.402 186.41 104.66 189.29 106.784 190.706C109.026 192.202 112.104 191.25 117.364 191.782C123.019 192.354 128.841 195.996 127.317 202.452C118.096 202.222 114.447 201.855 107.771 207.742C103.731 211.46 100.257 215.75 97.4588 220.474C96.1154 222.539 93.3478 226.177 96.5535 228.186Z" fill="#191919"/>
<path d="M180.389 214.83C178.056 214.741 168.463 214.291 166.043 214.202C164.787 215.816 162.187 219.403 162.096 219.492C164.966 219.583 174.381 219.941 176.264 220.03C176.981 219.04 179.761 215.543 180.389 214.83Z" fill="url(#paint1_linear_773_16400)"/>
<path d="M157.165 213.929C155.283 213.839 153.31 213.839 151.427 213.75C150.619 214.915 148.199 218.501 147.661 219.129C149.544 219.218 151.336 219.218 153.22 219.309C154.386 217.606 157.077 214.109 157.165 213.929Z" fill="url(#paint2_linear_773_16400)"/>
<path d="M143.088 213.481C142.909 213.481 138.426 213.301 136.453 213.212C135.018 215.006 133.495 216.798 132.059 218.592L139.143 218.86C139.412 218.318 142.46 214.198 143.088 213.481Z" fill="url(#paint3_linear_773_16400)"/>
<path d="M158.421 214.02C157.076 215.812 155.731 217.606 154.476 219.399C154.656 219.399 159.048 219.579 161.021 219.579C162.366 217.785 163.621 215.992 164.966 214.287C162.724 214.109 160.573 214.02 158.421 214.02Z" fill="url(#paint4_linear_773_16400)"/>
<path d="M140.218 218.861C142.371 218.951 144.523 219.041 146.764 219.041C147.213 218.144 149.724 214.646 150.441 213.66C148.378 213.571 146.316 213.481 144.254 213.481C144.074 213.575 140.398 218.597 140.218 218.861Z" fill="url(#paint5_linear_773_16400)"/>
<path d="M135.108 213.212L128.652 212.942C127.128 214.736 125.514 216.529 123.99 218.323C124.08 218.323 128.652 218.501 130.714 218.592C131.88 217.157 134.839 213.574 135.108 213.212Z" fill="url(#paint6_linear_773_16400)"/>
<path d="M189.175 215.184C186.754 215.184 181.734 214.915 181.642 214.915C180.925 215.812 178.146 219.309 177.518 220.116C177.697 220.116 182.449 220.296 184.6 220.565C184.782 220.296 188.996 215.453 189.175 215.184Z" fill="url(#paint7_linear_773_16400)"/>
<path d="M176.533 221.371C176.264 221.73 175.908 222.18 175.636 222.537C173.683 225.087 173.314 225.912 172.856 226.482C178.002 226.482 177.663 227.504 183.616 221.551C181.054 221.551 178.486 221.371 176.533 221.371Z" fill="url(#paint8_linear_773_16400)"/>
<path d="M167.746 221.013C165.593 220.924 163.352 220.833 161.2 220.833C160.662 221.641 160.051 222.458 159.496 223.255C158.81 224.314 158.062 225.332 157.255 226.303H164.07C164.159 226.124 164.249 226.034 164.338 225.855C164.843 224.678 167.525 221.454 167.746 221.013Z" fill="url(#paint9_linear_773_16400)"/>
<path d="M121.838 211.778C123.99 211.778 126.232 211.867 128.383 211.956C128.832 211.419 131.253 208.55 132.059 207.653C129.91 207.518 127.754 207.518 125.604 207.653C125.424 207.833 122.018 211.509 121.838 211.778Z" fill="url(#paint10_linear_773_16400)"/>
<path d="M172.947 224.51C173.686 223.59 174.527 222.121 175.278 221.371C173.125 221.282 170.883 221.192 168.732 221.192C167.388 222.89 166.131 224.656 164.966 226.482H171.602C171.991 225.786 172.441 225.126 172.947 224.51Z" fill="url(#paint11_linear_773_16400)"/>
<path d="M122.913 218.233C123.9 217.068 127.038 213.481 127.577 212.854C123.363 212.674 119.148 212.406 114.845 212.137C112.815 213.837 110.953 215.728 109.286 217.785C113.858 217.785 118.341 218.054 122.913 218.233Z" fill="url(#paint12_linear_773_16400)"/>
<path d="M152.234 220.565C147.302 220.385 133.225 219.846 131.073 219.757C129.997 221.102 126.68 225.405 126.051 226.124C126.231 226.124 148.018 226.302 148.198 226.302C148.468 225.85 151.696 221.282 152.234 220.565Z" fill="url(#paint13_linear_773_16400)"/>
<path d="M120.667 211.687C120.758 211.508 123.986 208.1 124.434 207.652C124.165 207.652 123.895 207.742 123.537 207.742C120.603 208.306 117.858 209.602 115.558 211.508L115.468 211.597C117.18 211.687 118.968 211.687 120.667 211.687Z" fill="url(#paint14_linear_773_16400)"/>
<path d="M129.456 211.867C131.609 211.956 133.761 211.956 135.912 212.045C137.168 210.522 138.423 209.087 139.857 207.653C137.795 207.563 133.312 207.473 133.133 207.473C131.994 209.007 130.766 210.475 129.456 211.867Z" fill="url(#paint15_linear_773_16400)"/>
<path d="M129.819 219.668L123.093 219.398C122.018 220.654 118.699 224.958 118.071 225.855C120.312 226.033 122.553 226.123 124.795 226.124C125.066 225.585 129.1 220.654 129.819 219.668Z" fill="url(#paint16_linear_773_16400)"/>
<path d="M160.034 220.829C157.883 220.74 155.731 220.65 153.489 220.65C152.683 221.815 151.808 222.997 150.978 224.148C150.455 224.874 149.992 225.671 149.455 226.388H156.178C157.306 224.43 158.596 222.571 160.034 220.829Z" fill="url(#paint17_linear_773_16400)"/>
<path d="M137.35 212.136C139.59 212.226 141.832 212.226 144.074 212.315C144.523 211.778 146.944 208.819 147.84 207.922C145.509 207.833 143.177 207.833 140.846 207.742C139.86 209.087 137.529 211.956 137.35 212.136Z" fill="url(#paint18_linear_773_16400)"/>
<path d="M122.018 219.31C119.776 219.219 117.534 219.13 115.293 218.951C114.934 219.488 110.54 224.779 110.361 224.958C110.72 224.958 116.907 225.675 117.265 225.675C118.733 223.469 120.32 221.344 122.018 219.31Z" fill="url(#paint19_linear_773_16400)"/>
<path d="M114.306 218.86C112.475 218.775 110.649 218.596 108.837 218.323C107.403 219.937 104.912 222.508 107.313 224.061C107.929 224.403 108.594 224.645 109.286 224.779C109.554 224.419 114.037 219.219 114.306 218.86Z" fill="url(#paint20_linear_773_16400)"/>
<path d="M174.828 213.392C174.828 213.392 179.312 213.571 181.375 213.66C181.823 213.123 184.692 209.536 185.768 208.281C184.243 208.192 179.67 208.37 178.953 208.37C178.684 208.639 175.008 213.123 174.828 213.392Z" fill="url(#paint21_linear_773_16400)"/>
<path d="M145.151 212.319C147.213 212.409 149.186 212.409 151.248 212.499C151.965 211.512 154.028 208.554 154.386 208.015C152.503 208.015 150.53 207.926 148.647 207.926C147.56 209.45 146.393 210.917 145.151 212.319Z" fill="url(#paint22_linear_773_16400)"/>
<path d="M182.54 213.75C182.629 213.75 187.562 214.019 189.893 214.198C190.244 213.705 190.516 213.16 190.699 212.584C190.89 212.083 190.933 211.537 190.821 211.012C190.71 210.487 190.45 210.006 190.072 209.625C189.003 208.83 187.726 208.363 186.396 208.28C185.261 210.205 183.972 212.035 182.54 213.75Z" fill="url(#paint23_linear_773_16400)"/>
<path d="M166.938 213.122C169.18 213.212 171.511 213.301 173.753 213.392C174.022 212.853 177.789 208.55 177.878 208.459H170.616C169.808 209.356 167.388 212.495 166.938 213.122Z" fill="url(#paint24_linear_773_16400)"/>
<path d="M152.233 212.584C154.206 212.673 156.089 212.673 158.062 212.764C159.228 211.239 160.394 209.715 161.559 208.191C159.496 208.191 157.434 208.101 155.372 208.101C154.923 208.819 152.772 211.778 152.233 212.584Z" fill="url(#paint25_linear_773_16400)"/>
<path d="M159.317 212.764C159.407 212.764 163.801 212.942 165.863 213.033C166.58 212.045 169.091 208.908 169.539 208.37C167.207 208.37 164.876 208.28 162.545 208.28C161.828 209.356 159.676 212.319 159.317 212.764Z" fill="url(#paint26_linear_773_16400)"/>
<path d="M91.0838 183.981C90.9038 183.892 90.7239 184.162 90.8146 184.25C92.2121 185.559 93.3238 187.143 94.0798 188.902C94.8357 190.661 95.2197 192.558 95.2074 194.473C90.3375 197.395 87.9785 199.566 80.5934 205.591C78.7634 205.269 77.0333 204.526 75.5394 203.421C74.0455 202.316 72.8287 200.88 71.9848 199.224C67.6952 190.699 74.8781 179.465 87.1387 181.381C87.408 181.202 87.048 180.933 86.8695 180.844C80.2781 178.333 70.8786 182.845 69.5715 191.782C69.1848 191.299 68.68 190.924 68.106 190.694C67.5319 190.463 66.9081 190.385 66.2949 190.466C65.6817 190.547 65.0998 190.785 64.6056 191.157C64.1114 191.529 63.7216 192.023 63.4739 192.59C63.3488 190.823 62.8034 189.112 61.8833 187.599C60.9632 186.087 59.6949 184.815 58.1841 183.892C58.0042 183.802 57.8242 184.072 57.9149 184.161C61.3801 187.591 63.3052 192.51 61.7637 197.253C61.1387 198.963 60.1552 200.519 58.8791 201.816C57.6031 203.114 56.0641 204.124 54.3654 204.778C52.6668 205.432 50.8479 205.715 49.0309 205.608C47.214 205.501 45.4409 205.006 43.831 204.157C33.201 198.09 37.0289 179.432 54.1428 181.202C54.1844 181.2 54.2243 181.185 54.2565 181.159C54.2888 181.133 54.3116 181.097 54.3217 181.056C54.3317 181.016 54.3284 180.973 54.3123 180.935C54.2961 180.897 54.268 180.865 54.2321 180.844C47.829 177.808 37.6316 182.851 36.5686 192.143C34.3366 192.463 25.3639 195.714 18.4559 199.227C15.5975 200.682 12.4714 202.03 10.2073 204.338C4.91603 209.734 6.66117 217.344 11.8213 218.863C11.9564 218.891 12.0972 218.872 12.2195 218.807C12.3417 218.743 12.4376 218.638 12.4907 218.511C12.5437 218.383 12.5506 218.241 12.5102 218.109C12.4697 217.977 12.3845 217.863 12.2691 217.787C11.1911 217.236 10.2713 216.419 9.59671 215.413C8.92209 214.408 8.51481 213.247 8.4133 212.04C8.05897 207.289 11.7236 204.676 15.2279 202.536C20.4118 199.528 25.8785 197.035 31.5494 195.095C32.0878 194.915 36.5714 193.66 36.5714 193.301C35.9952 203.671 46.7549 210.849 57.1044 205.047C58.967 203.981 60.5377 202.472 61.6772 200.654C63.0024 198.489 62.8476 196.084 63.919 193.839C64.7294 192.138 67.5013 190.704 68.941 192.673C69.9174 194.021 69.6259 195.999 70.0165 197.515C70.64 199.735 71.8393 201.749 73.4927 203.356C75.1462 204.962 77.195 206.102 79.4314 206.661C77.2281 209.1 75.2197 211.708 73.4245 214.462C71.611 217.949 70.8995 223.899 74.9478 226.208C76.4756 226.994 78.1616 227.423 79.8792 227.463C79.9732 227.458 80.0647 227.431 80.1465 227.384C80.2282 227.337 80.298 227.272 80.3503 227.194C80.4025 227.116 80.4358 227.026 80.4475 226.933C80.4592 226.839 80.4489 226.744 80.4176 226.655C80.2391 226.208 78.8957 226.109 78.5344 226.028C75.9341 225.443 74.3089 224.571 73.603 221.993C73.2949 220.57 73.2956 219.097 73.6051 217.674C73.9146 216.251 74.5256 214.911 75.397 213.745C78.9836 208.364 81.0454 207.019 81.1347 206.93C88.7221 207.114 93.539 203.685 95.5715 199.219C97.8286 194.251 96.3736 187.12 91.0838 183.981ZM90.6346 203.169C88.2607 204.904 85.4144 205.874 82.4752 205.949C84.1799 204.514 86.0841 203.108 87.8558 201.735C89.2173 200.681 90.6192 199.472 91.9808 198.418C93.0438 197.593 94.1319 196.804 95.2074 195.818C94.5991 198.731 92.9792 201.336 90.6346 203.169Z" fill="#191919"/>
<path d="M261.355 187.389C253.2 179.623 239.617 181.971 226.027 180.664C223.674 180.512 221.336 180.182 219.033 179.677C217.15 179.23 215.501 178.432 214.999 176.449C214.228 173.415 216.556 170.935 218.766 169.187C220.382 168.086 221.858 166.791 223.16 165.331C223.547 165.379 223.938 165.379 224.325 165.331C225.199 165.093 225.72 162.628 225.948 161.51C232.45 161.655 238.927 162.364 245.307 163.628C249.789 164.703 254.631 165.422 258.838 167.484C258.957 167.529 259.089 167.526 259.206 167.476C259.324 167.425 259.417 167.332 259.466 167.214C261.852 151.408 271.64 63.1056 272.021 61.5906C272.112 61.6813 264.939 61.0535 263.594 60.8736C251.845 50.9816 234.611 44.1615 217.686 47.3421C210.744 48.724 203.997 50.9522 197.598 53.9767C190.355 57.3295 183.424 61.3181 176.886 65.8956V65.8049C168.003 53.3685 150.345 43.0469 130.53 44.2856C116.038 45.2273 104.013 50.6678 91.4369 58.0041C90.639 58.47 89.9219 59.0085 89.1059 59.4395C88.9287 59.533 89.1059 59.8873 89.2844 59.7087C113.432 46.2135 136.993 38.8214 160.746 53.0727C163.94 55.0613 166.942 57.3426 169.713 59.8873C170.969 61.0535 175.631 67.1497 176.797 66.3434C202.448 51.0291 223.553 40.667 249.962 53.4312C255.521 56.1222 266.283 64.7307 266.818 65.2678C266.818 65.2678 256.866 147.131 256.774 147.573C256.863 146.945 252.918 144.973 252.379 144.703C244.311 140.432 234.143 139.139 224.943 139.413C212.739 139.738 200.774 142.867 189.974 148.559C183.146 151.715 176.972 156.125 171.772 161.56C172.542 147.69 172.454 143.126 173.208 125.43C173.655 113.415 176.166 72.2638 176.256 68.7623C176.264 68.4038 175.808 68.4038 175.717 68.7623C173.1 91.0056 170.497 148.129 170.875 161.111C163.074 151.966 151.328 146.856 139.852 144.076C116.905 138.582 94.2144 143.131 83.0948 150.173C84.8316 139.745 90.2972 75.7192 89.4616 61.9435C89.4616 61.585 89.0138 61.6757 89.0138 61.9435C88.8827 63.199 87.6453 87.2558 87.0399 94.7609C86.1443 106.507 82.2885 149.724 82.1992 150.621C82.1992 150.979 82.7363 151.07 82.9162 150.801C93.7204 145.318 105.676 142.491 117.791 142.552C136.345 142.349 156.102 147.419 169.437 160.753L170.962 162.278C171.23 162.547 171.857 162.367 171.857 162.008C176.284 158.215 179 155.163 188.087 150.352C198.675 144.411 210.484 140.975 222.607 140.308C234.264 139.589 245.382 141.563 255.514 147.57C255.892 147.778 256.252 148.018 256.59 148.287C256.411 150.081 256.142 151.784 255.962 153.577C255.514 153.308 255.072 153.029 254.617 152.771C250.868 150.939 246.929 149.525 242.871 148.556C219.397 142.688 191.573 149.169 173.382 162.813C172.396 162.902 170.154 162.992 170.065 162.992C166.814 159.58 160.646 156.296 156.254 154.474C139.672 147.252 118.729 145.928 102.904 149.095C97.5247 150.17 86.1373 154.654 86.1373 154.563V150.44C86.1311 150.384 86.1048 150.333 86.0634 150.296C86.022 150.259 85.9683 150.239 85.9127 150.239C85.8571 150.239 85.8035 150.259 85.762 150.296C85.7206 150.333 85.6943 150.384 85.6881 150.44C85.6881 150.887 84.8874 155.929 85.7788 155.64C90.9291 153.966 95.8228 151.784 101.111 150.618C124.332 145.688 149.289 149.809 168.896 163.082C167.551 163.53 166.188 162.664 164.951 161.916C159.417 158.458 153.362 155.914 147.018 154.383C134.859 151.663 116.188 150.085 101.648 153.128C94.8979 154.627 87.2575 157.387 86.7651 157.88C86.6826 157.922 86.6136 157.986 86.5659 158.066C86.5183 158.145 86.494 158.236 86.4958 158.328C86.4065 159.762 86.3159 161.107 86.2266 162.543C86.2274 162.618 86.2459 162.692 86.2806 162.758C86.3154 162.825 86.3654 162.882 86.4266 162.926C86.4878 162.97 86.5584 162.998 86.6328 163.009C86.7071 163.021 86.783 163.014 86.8543 162.99C111.03 155.816 139.001 157.279 163.337 164.515C163.247 165.412 163.427 167.563 163.695 167.563C167.103 167.385 178.132 167.026 178.761 166.757C179.657 166.488 179.567 165.321 179.478 164.426C179.567 164.426 192.48 162.273 197.5 161.735C198.661 161.626 200.49 161.519 202.784 161.434C202.3 162.792 201.572 165.331 202.701 165.412H203.239C202.51 167.079 201.441 168.575 200.1 169.805C195.169 174.916 187.188 175.453 180.375 175.275C179.91 175.233 179.442 175.327 179.029 175.544C178.946 175.597 178.878 175.67 178.831 175.756C178.784 175.842 178.759 175.939 178.759 176.037C178.759 176.135 178.784 176.232 178.831 176.318C178.878 176.404 178.946 176.477 179.029 176.53C179.723 176.872 180.504 176.997 181.271 176.889C190.631 176.889 201.528 174.401 204.493 165.501C204.959 165.543 205.426 165.45 205.839 165.232C206.338 163.991 206.586 162.664 206.569 161.326C211.269 161.224 217.068 161.215 222.918 161.394C222.476 162.423 221.224 164.91 222.247 165.147C218.008 169.064 215.079 170.375 214.177 173.754C213.944 174.531 213.879 175.349 213.987 176.153C214.095 176.957 214.374 177.729 214.805 178.416C216.023 179.862 217.764 180.765 219.647 180.927C233.179 183.578 247.857 181.177 256.768 186.128C265.156 190.703 265.18 199.337 257.396 200.115C253.54 200.474 250.132 198.681 246.546 197.604C241.765 196.276 237.686 198.001 235.966 201.012C235.74 200.843 235.5 200.693 235.249 200.563C233.008 198.897 230.325 197.931 227.537 197.784C216.386 196.723 202.557 208.805 206.287 218.496C207.812 222.352 212.026 223.697 215.881 223.786C223.135 223.786 230.633 221.045 235.427 215.717C239.538 211.15 241.565 205.62 236.863 201.64C237.903 200.595 239.178 199.813 240.582 199.361C241.985 198.908 243.477 198.798 244.932 199.04C246.761 199.525 248.558 200.123 250.312 200.833C258.672 203.762 263.715 200.584 264.658 196.529C264.946 194.85 264.793 193.125 264.214 191.523C263.635 189.921 262.65 188.496 261.355 187.389ZM210.785 152.688C198.91 154.315 187.357 157.763 176.533 162.911C175.816 162.911 175.098 163 174.47 163C179.042 159.999 183.909 157.475 188.996 155.467C208.438 147.001 233.756 144.883 253.554 154.122C254.271 154.481 254.988 154.929 255.705 155.287C255.676 156.259 255.526 157.223 255.257 158.157C241.27 151.971 225.851 150.626 210.785 152.688ZM230.51 199.224C228.166 198.704 223.256 199.725 219.572 202.632C219.163 202.454 218.456 202.048 215.088 202.721C215.687 202.721 222.363 197.189 230.51 199.224ZM235.711 213.661C233.601 216.159 231.017 218.215 228.108 219.708C225.2 221.202 222.024 222.104 218.764 222.363C215.358 222.721 211.231 222.632 208.72 219.852C206.389 217.252 207.017 213.128 208.362 210.259C209.502 207.967 211.123 205.949 213.114 204.341C215.912 203.541 218.893 203.658 221.619 204.674C224.346 205.691 226.675 207.553 228.267 209.989C228.441 210.261 229.253 211.334 229.253 210.439C229.253 207.478 226.439 205.221 223.785 203.892C223.336 203.624 221.184 202.547 220.825 202.816C232.799 195.718 243.511 204.153 235.711 213.661Z" fill="#191919"/>
<path d="M202.535 213.481C200.024 217.068 197.407 220.735 194.825 224.33C192.838 227.099 190.243 231.917 186.665 232.848C183.21 233.508 179.688 233.749 176.175 233.565C169.628 233.611 163.083 233.491 156.537 233.386C130.599 232.968 111.42 233.258 96.2845 230.338C95.926 230.248 95.4768 230.338 95.5675 230.697C100.03 232.037 104.634 232.849 109.286 233.117C122.329 234.173 136.767 234.334 155.014 234.462C165.527 234.536 184.821 235.696 188.458 233.386C191.248 231.613 193.134 228.554 195.094 225.944C198.904 220.869 202.419 215.43 203.253 213.929C203.612 213.392 202.895 213.033 202.535 213.481Z" fill="#191919"/>
<path d="M109.914 67.5985C120.229 63.5186 131.646 63.1697 142.191 66.6122C144.345 67.3927 146.443 68.3211 148.469 69.3911C149.111 69.8282 149.848 70.1052 150.62 70.1988C150.978 70.1988 151.158 69.8402 151.069 69.4817C150.662 68.896 150.104 68.4309 149.455 68.1355C137.24 61.1605 120.887 61.0211 109.823 67.24C109.464 67.3292 109.554 67.6878 109.914 67.5985Z" fill="url(#paint27_linear_773_16400)"/>
<path d="M161.47 132.873C159.888 131.292 158.074 129.961 156.089 128.928C140.186 120.049 121.514 117.103 104.353 122.383C101.983 123.085 99.6984 124.047 97.5399 125.251C97.2735 125.437 97.4493 125.79 97.7185 125.7C101.764 124.27 105.897 123.102 110.092 122.203C122.902 119.983 136.081 121.541 148.019 126.687C151.362 128.163 154.598 129.871 157.703 131.798C158.779 132.424 159.859 132.956 160.932 133.59C161.027 133.642 161.138 133.658 161.244 133.634C161.35 133.611 161.444 133.551 161.509 133.464C161.575 133.377 161.607 133.27 161.599 133.161C161.592 133.053 161.546 132.951 161.47 132.873Z" fill="url(#paint28_linear_773_16400)"/>
<path d="M158.779 140.406C142.823 130.832 118.504 126.624 100.859 133.411C99.6924 133.815 98.5787 134.357 97.5414 135.025C97.2749 135.211 97.4507 135.564 97.72 135.474C100.912 134.676 108.339 130.837 122.647 131.439C133.691 132.058 144.491 134.926 154.388 139.867C155.473 140.387 156.449 140.944 157.525 141.481C158.601 142.018 159.767 142.467 160.844 143.006C160.939 143.065 161.054 143.084 161.163 143.059C161.272 143.034 161.367 142.966 161.426 142.871C161.485 142.776 161.505 142.661 161.479 142.552C161.454 142.443 161.387 142.348 161.291 142.289C160.484 141.661 159.676 141.035 158.779 140.406Z" fill="url(#paint29_linear_773_16400)"/>
<path d="M102.291 94.1387C100.684 94.6649 99.1247 95.3262 97.6292 96.1154C97.5753 96.1429 97.5336 96.1895 97.5122 96.2461C97.4909 96.3027 97.4914 96.3652 97.5137 96.4214C97.5361 96.4776 97.5786 96.5235 97.633 96.5499C97.6874 96.5764 97.7497 96.5817 97.8077 96.5646C104.513 95.3803 131.602 82.0943 155.372 100.51C158.441 102.89 159.444 103.439 161.021 104.544C161.47 104.813 161.828 104.186 161.559 103.827C160.152 102.181 158.557 100.706 156.806 99.4327C155.184 98.2791 153.499 97.0864 151.784 96.0262C136.83 86.7689 119.015 88.2183 102.291 94.1387Z" fill="url(#paint30_linear_773_16400)"/>
<path d="M97.7185 106.332C104.723 105.02 130.253 93.7774 155.372 110.727C157.178 112.04 159.065 113.237 161.021 114.313C161.116 114.365 161.227 114.38 161.333 114.357C161.439 114.334 161.534 114.273 161.599 114.187C161.664 114.1 161.696 113.992 161.689 113.884C161.681 113.776 161.635 113.674 161.559 113.596C160.855 112.863 160.107 112.174 159.318 111.533C156.91 109.763 154.394 108.147 151.785 106.692C140.216 100.231 127.941 98.8482 115.111 100.864C110.384 101.606 100.988 103.922 97.7171 105.886C97.2707 105.974 97.4493 106.332 97.7185 106.332Z" fill="url(#paint31_linear_773_16400)"/>
<path d="M161.47 122.202C159.943 120.684 158.188 119.413 156.27 118.436C140.033 109.368 120.594 107.161 104.353 112.158C102.004 112.8 99.7456 113.734 97.6293 114.938C97.5729 114.964 97.5287 115.01 97.5056 115.068C97.4826 115.125 97.4825 115.19 97.5054 115.247C97.5284 115.305 97.5726 115.351 97.6289 115.377C97.6852 115.403 97.7492 115.406 97.8078 115.386C101.17 114.549 121.867 105.466 148.289 116.463C151.586 117.907 154.79 119.554 157.884 121.394C158.958 121.908 160.005 122.476 161.021 123.098C161.379 123.1 161.829 122.562 161.47 122.202Z" fill="url(#paint32_linear_773_16400)"/>
<path d="M167.746 184.341C168.638 184.783 169.619 185.013 170.615 185.013C171.61 185.013 172.592 184.783 173.484 184.341C173.663 184.251 173.842 177.168 174.022 175.105C174.202 173.042 174.65 170.981 174.65 168.918C174.65 168.112 172.946 168.649 172.588 168.649C170.917 168.769 169.24 168.799 167.566 168.74C167.984 168.74 167.514 184.11 167.746 184.341Z" fill="#191919"/>
<path d="M238.758 118.706C238.188 115.533 237.799 112.33 237.593 109.112C237.598 109.069 237.593 109.025 237.579 108.983C237.565 108.941 237.542 108.903 237.513 108.871C237.483 108.838 237.447 108.812 237.407 108.794C237.367 108.777 237.324 108.768 237.28 108.768C237.236 108.768 237.192 108.777 237.152 108.794C237.112 108.812 237.076 108.838 237.046 108.871C237.017 108.903 236.994 108.941 236.981 108.983C236.967 109.025 236.962 109.069 236.966 109.112C236.731 112.443 236.942 115.791 237.593 119.066C237.683 119.872 237.772 121.038 238.49 121.486C238.58 121.575 238.669 121.486 238.758 121.397C239.297 120.678 238.849 119.514 238.758 118.706Z" fill="#191919"/>
<path d="M241.893 115.747C241.72 115.23 240.614 114.203 240.279 114.761C240.01 115.12 240.818 115.658 241.176 116.734C241.265 117.003 241.265 117.811 241.624 117.9C242.162 118.078 242.252 117.272 242.252 116.914C242.187 116.51 242.066 116.118 241.893 115.747Z" fill="#191919"/>
<path d="M244.587 116.914C244.487 116.694 244.367 116.484 244.228 116.286C244.05 116.017 243.511 115.389 243.153 115.747C242.883 116.017 243.511 116.644 243.78 117.631C243.87 117.9 243.78 118.617 244.05 118.706C244.45 118.948 245.06 118.33 244.587 116.914Z" fill="#191919"/>
<path d="M246.559 123.548C247.228 122.704 247.606 121.666 247.636 120.589C247.671 119.322 247.327 118.074 246.65 117.003C246.629 116.967 246.597 116.938 246.558 116.922C246.52 116.906 246.478 116.903 246.437 116.913C246.397 116.923 246.361 116.946 246.334 116.978C246.308 117.01 246.293 117.05 246.291 117.092C246.201 118.347 246.653 119.603 246.559 120.858C246.294 121.971 245.737 122.992 244.945 123.817C243.771 125.515 242.892 128.207 243.69 130.184C243.87 130.63 244.496 130.362 244.496 129.915C244.708 127.807 244.029 127.183 246.559 123.548Z" fill="#191919"/>
<path d="M234.545 121.217C234.545 120.052 234.837 118.237 233.918 117.272C233.891 117.247 233.858 117.229 233.822 117.22C233.787 117.211 233.749 117.211 233.714 117.219C233.678 117.228 233.645 117.246 233.618 117.271C233.591 117.295 233.57 117.326 233.558 117.361C233.411 118.671 233.351 119.989 233.379 121.306C233.379 126.345 238.11 127.054 238.938 130.095C238.986 130.405 239.077 130.707 239.207 130.992C239.251 131.073 239.315 131.141 239.394 131.189C239.473 131.236 239.564 131.261 239.656 131.261C239.748 131.261 239.839 131.236 239.918 131.189C239.997 131.141 240.061 131.073 240.104 130.992C240.828 130.015 239.739 128.576 239.118 127.853C237.413 125.872 234.545 124.824 234.545 121.217Z" fill="#191919"/>
<defs>
<linearGradient id="paint0_linear_773_16400" x1="183.137" y1="96.1896" x2="250.999" y2="96.1896" gradientUnits="userSpaceOnUse">
<stop stop-color="#22C5CF"/>
<stop offset="1" stop-color="#354A81"/>
</linearGradient>
<linearGradient id="paint1_linear_773_16400" x1="162.096" y1="216.869" x2="180.389" y2="216.869" gradientUnits="userSpaceOnUse">
<stop stop-color="#22C5CF"/>
<stop offset="1" stop-color="#354A81"/>
</linearGradient>
<linearGradient id="paint2_linear_773_16400" x1="147.661" y1="216.293" x2="157.165" y2="216.293" gradientUnits="userSpaceOnUse">
<stop stop-color="#22C5CF"/>
<stop offset="1" stop-color="#354A81"/>
</linearGradient>
<linearGradient id="paint3_linear_773_16400" x1="132.059" y1="215.796" x2="143.088" y2="215.796" gradientUnits="userSpaceOnUse">
<stop stop-color="#22C5CF"/>
<stop offset="1" stop-color="#354A81"/>
</linearGradient>
<linearGradient id="paint4_linear_773_16400" x1="154.476" y1="216.563" x2="164.966" y2="216.563" gradientUnits="userSpaceOnUse">
<stop stop-color="#22C5CF"/>
<stop offset="1" stop-color="#354A81"/>
</linearGradient>
<linearGradient id="paint5_linear_773_16400" x1="140.218" y1="216.025" x2="150.441" y2="216.025" gradientUnits="userSpaceOnUse">
<stop stop-color="#22C5CF"/>
<stop offset="1" stop-color="#354A81"/>
</linearGradient>
<linearGradient id="paint6_linear_773_16400" x1="123.99" y1="215.527" x2="135.108" y2="215.527" gradientUnits="userSpaceOnUse">
<stop stop-color="#22C5CF"/>
<stop offset="1" stop-color="#354A81"/>
</linearGradient>
<linearGradient id="paint7_linear_773_16400" x1="177.518" y1="217.5" x2="189.175" y2="217.5" gradientUnits="userSpaceOnUse">
<stop stop-color="#22C5CF"/>
<stop offset="1" stop-color="#354A81"/>
</linearGradient>
<linearGradient id="paint8_linear_773_16400" x1="172.856" y1="223.74" x2="183.616" y2="223.74" gradientUnits="userSpaceOnUse">
<stop stop-color="#22C5CF"/>
<stop offset="1" stop-color="#354A81"/>
</linearGradient>
<linearGradient id="paint9_linear_773_16400" x1="157.255" y1="223.335" x2="167.746" y2="223.335" gradientUnits="userSpaceOnUse">
<stop stop-color="#22C5CF"/>
<stop offset="1" stop-color="#354A81"/>
</linearGradient>
<linearGradient id="paint10_linear_773_16400" x1="121.838" y1="209.567" x2="132.059" y2="209.567" gradientUnits="userSpaceOnUse">
<stop stop-color="#22C5CF"/>
<stop offset="1" stop-color="#354A81"/>
</linearGradient>
<linearGradient id="paint11_linear_773_16400" x1="164.966" y1="223.612" x2="175.278" y2="223.612" gradientUnits="userSpaceOnUse">
<stop stop-color="#22C5CF"/>
<stop offset="1" stop-color="#354A81"/>
</linearGradient>
<linearGradient id="paint12_linear_773_16400" x1="109.286" y1="214.926" x2="127.577" y2="214.926" gradientUnits="userSpaceOnUse">
<stop stop-color="#22C5CF"/>
<stop offset="1" stop-color="#354A81"/>
</linearGradient>
<linearGradient id="paint13_linear_773_16400" x1="126.051" y1="222.751" x2="152.234" y2="222.751" gradientUnits="userSpaceOnUse">
<stop stop-color="#22C5CF"/>
<stop offset="1" stop-color="#354A81"/>
</linearGradient>
<linearGradient id="paint14_linear_773_16400" x1="115.468" y1="209.498" x2="124.434" y2="209.498" gradientUnits="userSpaceOnUse">
<stop stop-color="#22C5CF"/>
<stop offset="1" stop-color="#354A81"/>
</linearGradient>
<linearGradient id="paint15_linear_773_16400" x1="129.456" y1="209.565" x2="139.857" y2="209.565" gradientUnits="userSpaceOnUse">
<stop stop-color="#22C5CF"/>
<stop offset="1" stop-color="#354A81"/>
</linearGradient>
<linearGradient id="paint16_linear_773_16400" x1="118.071" y1="222.475" x2="129.819" y2="222.475" gradientUnits="userSpaceOnUse">
<stop stop-color="#22C5CF"/>
<stop offset="1" stop-color="#354A81"/>
</linearGradient>
<linearGradient id="paint17_linear_773_16400" x1="149.455" y1="223.275" x2="160.034" y2="223.275" gradientUnits="userSpaceOnUse">
<stop stop-color="#22C5CF"/>
<stop offset="1" stop-color="#354A81"/>
</linearGradient>
<linearGradient id="paint18_linear_773_16400" x1="137.35" y1="209.834" x2="147.84" y2="209.834" gradientUnits="userSpaceOnUse">
<stop stop-color="#22C5CF"/>
<stop offset="1" stop-color="#354A81"/>
</linearGradient>
<linearGradient id="paint19_linear_773_16400" x1="110.361" y1="222.027" x2="122.018" y2="222.027" gradientUnits="userSpaceOnUse">
<stop stop-color="#22C5CF"/>
<stop offset="1" stop-color="#354A81"/>
</linearGradient>
<linearGradient id="paint20_linear_773_16400" x1="106.312" y1="221.277" x2="114.306" y2="221.277" gradientUnits="userSpaceOnUse">
<stop stop-color="#22C5CF"/>
<stop offset="1" stop-color="#354A81"/>
</linearGradient>
<linearGradient id="paint21_linear_773_16400" x1="174.828" y1="210.728" x2="185.768" y2="210.728" gradientUnits="userSpaceOnUse">
<stop stop-color="#22C5CF"/>
<stop offset="1" stop-color="#354A81"/>
</linearGradient>
<linearGradient id="paint22_linear_773_16400" x1="145.151" y1="210.018" x2="154.386" y2="210.018" gradientUnits="userSpaceOnUse">
<stop stop-color="#22C5CF"/>
<stop offset="1" stop-color="#354A81"/>
</linearGradient>
<linearGradient id="paint23_linear_773_16400" x1="182.54" y1="210.988" x2="190.882" y2="210.988" gradientUnits="userSpaceOnUse">
<stop stop-color="#22C5CF"/>
<stop offset="1" stop-color="#354A81"/>
</linearGradient>
<linearGradient id="paint24_linear_773_16400" x1="166.938" y1="210.716" x2="177.878" y2="210.716" gradientUnits="userSpaceOnUse">
<stop stop-color="#22C5CF"/>
<stop offset="1" stop-color="#354A81"/>
</linearGradient>
<linearGradient id="paint25_linear_773_16400" x1="152.233" y1="210.234" x2="161.559" y2="210.234" gradientUnits="userSpaceOnUse">
<stop stop-color="#22C5CF"/>
<stop offset="1" stop-color="#354A81"/>
</linearGradient>
<linearGradient id="paint26_linear_773_16400" x1="159.317" y1="210.455" x2="169.539" y2="210.455" gradientUnits="userSpaceOnUse">
<stop stop-color="#22C5CF"/>
<stop offset="1" stop-color="#354A81"/>
</linearGradient>
<linearGradient id="paint27_linear_773_16400" x1="109.595" y1="66.1483" x2="151.092" y2="66.1483" gradientUnits="userSpaceOnUse">
<stop stop-color="#22C5CF"/>
<stop offset="1" stop-color="#354A81"/>
</linearGradient>
<linearGradient id="paint28_linear_773_16400" x1="97.4077" y1="126.112" x2="161.6" y2="126.112" gradientUnits="userSpaceOnUse">
<stop stop-color="#22C5CF"/>
<stop offset="1" stop-color="#354A81"/>
</linearGradient>
<linearGradient id="paint29_linear_773_16400" x1="97.4092" y1="136.023" x2="161.49" y2="136.023" gradientUnits="userSpaceOnUse">
<stop stop-color="#22C5CF"/>
<stop offset="1" stop-color="#354A81"/>
</linearGradient>
<linearGradient id="paint30_linear_773_16400" x1="97.4966" y1="96.3526" x2="161.652" y2="96.3526" gradientUnits="userSpaceOnUse">
<stop stop-color="#22C5CF"/>
<stop offset="1" stop-color="#354A81"/>
</linearGradient>
<linearGradient id="paint31_linear_773_16400" x1="97.4453" y1="106.577" x2="161.69" y2="106.577" gradientUnits="userSpaceOnUse">
<stop stop-color="#22C5CF"/>
<stop offset="1" stop-color="#354A81"/>
</linearGradient>
<linearGradient id="paint32_linear_773_16400" x1="97.4883" y1="115.745" x2="161.602" y2="115.745" gradientUnits="userSpaceOnUse">
<stop stop-color="#22C5CF"/>
<stop offset="1" stop-color="#354A81"/>
</linearGradient>
</defs>
</svg>
